<?xml version="1.0" ?><!DOCTYPE svg  PUBLIC '-//W3C//DTD SVG 1.1//EN'  'http://www.w3.org/Graphics/SVG/1.1/DTD/svg11.dtd'><svg enable-background="new -0.05 -303.247 41.244 38.714" height="38.714px" id="Layer_1" version="1.1" viewBox="-0.05 -303.247 41.244 38.714" width="41.244px" xml:space="preserve" xmlns="http://www.w3.org/2000/svg" xmlns:xlink="http://www.w3.org/1999/xlink"><g><g><path d="M36.594-264.533c-1.796,0-4.453-0.358-8.738-0.938c-0.672-0.092-1.285-0.635-1.455-1.291l-1.191-4.526    c-0.01-0.021-0.059-0.058-0.086-0.061L2.53-270.514c-0.738,0.012-1.418-0.516-1.555-1.24l-0.82-4.355    c-0.072-0.385,0.02-0.776,0.256-1.074s0.596-0.479,0.988-0.497l25.676-1.134c0.695-0.032,1.396,0.44,1.625,1.099l1.201,3.427    l0.746-3.121c0.133-0.556,0.608-1.158,1.131-1.435c0.623-0.331,1.359-0.721,2.176-0.8l0.125-0.013    c1.545-0.146,3.461-0.328,4.359,0.646c1.008,1.093,1.696,3.432,1.108,4.926c-0.59,1.501-2.575,2.751-4.077,3.049    c-1.062,0.207-2.138-0.269-3.177-0.73c-0.395-0.176-0.789-0.354-1.176-0.482c-0.051-0.018-0.1-0.04-0.146-0.066l-0.312,1.301    c-0.063,0.27-0.051,0.571-0.014,0.653c0.229,0.296,1.055,0.309,1.854,0.319c0.295,0.004,0.597,0.01,0.894,0.026    c0.594,0.034,1.209-0.005,1.86-0.047c1.81-0.117,3.863-0.25,5.519,1.406c0.508,0.509,0.563,1.412,0.127,2.016    C39.801-265.135,38.92-264.533,36.594-264.533z M25.125-272.849c0.705,0,1.359,0.5,1.535,1.182l1.191,4.526    c0.02,0.066,0.141,0.174,0.207,0.184c9.823,1.328,10.262,1.309,11.629-0.564c0.01-0.019,0.014-0.077,0.004-0.102    c-1.152-1.146-2.627-1.052-4.34-0.941c-0.67,0.043-1.365,0.087-2.043,0.047c-0.277-0.017-0.556-0.021-0.828-0.023    c-1.16-0.017-2.359-0.034-3.045-0.938c-0.496-0.653-0.281-1.686-0.234-1.886l0.144-0.596c-0.164-0.085-0.298-0.229-0.363-0.418    l-1.695-4.842c-0.018-0.038-0.102-0.096-0.146-0.098l-25.474,1.125l0.783,4.159l22.625-0.815    C25.09-272.849,25.107-272.849,25.125-272.849z M31.355-273.71c0.078,0,0.158,0.012,0.235,0.039    c0.443,0.147,0.886,0.345,1.313,0.536c0.824,0.368,1.678,0.746,2.272,0.63c1.191-0.236,2.638-1.27,2.974-2.127    c0.326-0.828-0.103-2.586-0.814-3.36c-0.396-0.43-2.233-0.254-3.117-0.17l-0.122,0.013c-0.521,0.05-1.087,0.35-1.584,0.614    c-0.177,0.093-0.373,0.335-0.406,0.476l-0.801,3.353C31.32-273.709,31.338-273.71,31.355-273.71z"/></g><g><path d="M6.033-277.208c-0.049,0-0.102-0.005-0.152-0.015c-0.403-0.083-0.666-0.48-0.582-0.886    c0.229-1.118,0.478-2.234,0.724-3.351c0.574-2.597,1.168-5.282,1.522-7.937c0.39-2.903,2.146-3.3,3.816-3.304    c2.1-0.007,4.203-0.006,6.322-0.005l2.401,0.001c0.685,0,1.369,0.486,1.597,1.131l3.577,10.158    c0.222,0.629,0.015,1.438-0.479,1.883c-0.539,0.481-1.342,0.604-1.949,0.334l-0.438-0.187c-0.875-0.37-1.779-0.752-2.488-1.424    c-0.641-0.608-0.934-1.452-1.219-2.269c-0.107-0.31-0.215-0.62-0.343-0.908c-0.168-0.379,0.003-0.822,0.382-0.99    c0.377-0.167,0.821,0.002,0.989,0.381c0.146,0.326,0.267,0.675,0.39,1.025c0.233,0.676,0.457,1.314,0.832,1.672    c0.512,0.484,1.256,0.799,2.041,1.131l0.457,0.194c0.077,0.034,0.25,0.007,0.301-0.036c0.094-0.087,0.133-0.245,0.113-0.31    l-3.578-10.158c-0.021-0.05-0.129-0.126-0.185-0.129l-2.401-0.001c-2.117-0.001-4.218-0.002-6.316,0.005    c-1.43,0.005-2.104,0.294-2.334,2.002c-0.363,2.719-0.965,5.436-1.545,8.063c-0.246,1.109-0.49,2.218-0.719,3.328    C6.695-277.452,6.383-277.208,6.033-277.208z"/></g><g><path d="M14.199-266.593c-0.057,0-0.115,0-0.174,0c-3.115-0.011-6.271-0.203-9.326-0.388c-1.346-0.082-2.689-0.164-4.035-0.231    c-0.414-0.021-0.731-0.373-0.713-0.787c0.02-0.414,0.369-0.732,0.787-0.711c1.352,0.067,2.701,0.149,4.053,0.231    c3.031,0.185,6.168,0.375,9.24,0.386c2.254,0.007,3.766-0.138,5.48-0.306c1.092-0.107,2.221-0.219,3.686-0.305    c0.402-0.031,0.77,0.292,0.793,0.705c0.025,0.414-0.291,0.77-0.705,0.792c-1.436,0.084-2.549,0.194-3.627,0.3    C18.018-266.746,16.467-266.593,14.199-266.593z"/></g><g><path d="M17.027-292.535c-0.213,0-0.426-0.091-0.574-0.267c-0.268-0.317-0.227-0.79,0.09-1.057    c1.804-1.518,2.679-2.897,2.604-4.104c-0.074-1.202-1.107-2.458-3.068-3.733c-0.084-0.054-0.342-0.074-0.467-0.019    c-0.203,0.086-0.404,0.168-0.605,0.251c-1.678,0.685-3.002,1.226-3.268,3.272c-0.281,2.158,0.936,3.012,2.945,4.225l-0.322,0.682    l-0.387,0.643c-1.979-1.194-4.146-2.502-3.726-5.742c0.379-2.911,2.402-3.738,4.188-4.467c0.194-0.08,0.389-0.159,0.582-0.241    c0.578-0.25,1.369-0.191,1.877,0.141c2.414,1.568,3.641,3.17,3.746,4.896c0.106,1.729-0.916,3.478-3.134,5.344    C17.369-292.593,17.197-292.535,17.027-292.535z"/></g><g><path d="M15.695-277.208c-0.078,0-0.158-0.012-0.238-0.039c-0.393-0.131-0.604-0.556-0.475-0.949l2.332-6.996    c0.131-0.394,0.551-0.608,0.949-0.475c0.393,0.131,0.604,0.557,0.475,0.949l-2.332,6.997    C16.301-277.407,16.01-277.208,15.695-277.208z"/></g></g></svg>